<svg id="Capa_1" data-name="Capa 1" xmlns="http://www.w3.org/2000/svg" viewBox="0 0 434 75.9"><defs><style>.cls-1{fill:#f28b43;}</style></defs><title>logo</title><path class="cls-1" d="M18.34,47.14A13.79,13.79,0,0,1,14,41.3a.8.8,0,0,0-.55-.34c-.52-.05-1,0-1.57,0a1.07,1.07,0,0,1-1.17-1.06,1.08,1.08,0,0,1,1.17-1.07c.45,0,.9,0,1.41,0l-.18-2.28c-.37,0-.71,0-1,0a1.37,1.37,0,0,1-1.37-1.4,1.44,1.44,0,0,1,1.42-1.45h27.5c.89,0,1.41.3,1.64.94a1.37,1.37,0,0,1-1,1.88l-.53.11a1.67,1.67,0,0,0,0,.29c0,.6-.1,1.21-.15,1.88.31,0,.6,0,.89.06a1,1,0,0,1,1,1.06,1,1,0,0,1-1,1c-1.2-.19-1.6.44-2,1.41a12.39,12.39,0,0,1-4.19,5l-.55.41.76,1.44,8.06,15c.3.57.47,1.17,0,1.64a1.72,1.72,0,0,1-1.24.45,1.72,1.72,0,0,1-1-.8Q38,61.71,36,57.83A1,1,0,0,0,35,57.2c-2.25,0-4.5,0-6.75,0l-.74,0v1.67c0,2,0,3.91,0,5.87a1.33,1.33,0,0,1-1.24,1.51c-.81,0-1.37-.55-1.38-1.51,0-2.23,0-4.45,0-6.68v-.86l-.74,0c-2.55,0-5.1,0-7.65,0a.91.91,0,0,0-.95.56q-2,3.9-4.15,7.76a1.56,1.56,0,0,1-.85.78A1.84,1.84,0,0,1,9.21,66a1.2,1.2,0,0,1-.13-1.52c.66-1.25,1.33-2.49,2-3.73l7-13.17C18.2,47.44,18.25,47.32,18.34,47.14ZM17,55c.11.05.17.1.23.1l7.15,0c.38,0,.46-.19.45-.51,0-1.43,0-2.86,0-4.29,0-.4-.14-.54-.53-.62a18.55,18.55,0,0,1-2.44-.62c-1.45-.5-1.44-.53-2.15.81C18.82,51.56,17.92,53.26,17,55Zm17.51.07L31.3,49l-3.79.89v5.14Zm3-17.35A13.36,13.36,0,0,1,20,46.09a11,11,0,0,0,10.8,1.16C34.67,45.66,37.61,41.5,37.54,37.7Z"/><path class="cls-1" d="M28,.07c.15,2.77,1.59,4.94,3.18,7.05.11.15.2.31.31.45a4.48,4.48,0,0,1,.29,5.56,27.65,27.65,0,0,0-1.67,3.36A4.93,4.93,0,0,0,29.71,18a1.51,1.51,0,0,0,1.59,1.84c.66.05,1-.18.94-.84s-.14-1.36-.17-2a2.84,2.84,0,0,1,3-3.14c-.89,1.46-.45,2.9,0,4.35.48,1.65,1.12,3.28,1.44,5a7.64,7.64,0,0,1-4.21,8.59l-.43.18c1.25-2.12,2-4.18,1.17-6.54a23.44,23.44,0,0,1-.77,2.24,1.73,1.73,0,0,1-2.14,1,1.21,1.21,0,0,1-1-1.52c.08-.4.33-.75.44-1.14a18.64,18.64,0,0,0,.73-2.73,2.11,2.11,0,0,0-.86-1.92A16.28,16.28,0,0,1,29,23.15a1.31,1.31,0,0,1-1.59,1.13,1.37,1.37,0,0,1-1.3-1.67,24.78,24.78,0,0,1,.94-3.34,3.67,3.67,0,0,0-.74-3.63,4.21,4.21,0,0,0-.52-.49c-.22,1-.38,2-.62,2.88a6.89,6.89,0,0,1-.61,1.58,1.3,1.3,0,0,1-2.39.13l-.2-.27a2.77,2.77,0,0,0-.35,3.23c.34.69.7,1.38,1,2.1a4.9,4.9,0,0,1,.26,1.33,1.11,1.11,0,0,1-.83,1.25,1.25,1.25,0,0,1-1.51-.49,3,3,0,0,1-.28-2.74c.07-.23.16-.45.31-.87A5,5,0,0,0,18.3,27.5a10.71,10.71,0,0,0,1.33,4.78c-.33-.18-.5-.26-.66-.36-4.13-2.77-5.43-7.08-3.5-11.78.44-1.09.94-2.16,1.45-3.23a6.8,6.8,0,0,0-.47-7.07c-.07-.11-.12-.23-.2-.37a5.29,5.29,0,0,1,4.17,5,5.13,5.13,0,0,0,.16,1.61,1.33,1.33,0,0,0,2.24.6,1.91,1.91,0,0,0,.62-2.21c-.33-1-.79-1.94-1.13-2.93a3.9,3.9,0,0,1,2-5c-.1.42-.22.8-.28,1.2a2.38,2.38,0,0,0,.65,2.19,1.86,1.86,0,0,0,2.23.5,1.94,1.94,0,0,0,1-2.32A6,6,0,0,0,27,6.27a3.24,3.24,0,0,1-.56-3.15C26.78,2.06,27.26,1,27.68,0Z"/><path class="cls-1" d="M54.48,4.58H75.87v6.27H61.77v4H74.54V20.7H61.77v4.21H76.06v6.28H54.48Z"/><path class="cls-1" d="M79.83,4.58H87.2V24.72h12.89v6.47H79.83Z"/><path class="cls-1" d="M113.77,4.58h11.41c6.72,0,11.06,3.46,11.06,9.35V14c0,6.27-4.83,9.57-11.44,9.57h-3.65v7.61h-7.38Zm10.87,13.23c2.63,0,4.22-1.37,4.22-3.46v-.08c0-2.28-1.59-3.49-4.25-3.49h-3.46v7Z"/><path class="cls-1" d="M145.89,4.39H153l11.33,26.8h-7.91l-1.94-4.75H144.22l-1.9,4.75h-7.75Zm6.46,16.31-3-7.57-3,7.57Z"/><path class="cls-1" d="M166.91,4.58h12.58c4.07,0,6.88,1.06,8.67,2.89a8.24,8.24,0,0,1,2.36,6.19v.08A8.4,8.4,0,0,1,185,21.91l6.35,9.28h-8.51l-5.36-8.06h-3.23v8.06h-7.38Zm12.24,12.77c2.51,0,4-1.22,4-3.15v-.08c0-2.09-1.52-3.15-4-3.15h-4.82v6.38Z"/><path class="cls-1" d="M203,4.39h7.11l11.32,26.8h-7.9l-1.94-4.75H201.31l-1.9,4.75h-7.75Zm6.46,16.31-3-7.57-3,7.57Z"/><path class="cls-1" d="M224,4.58h10.26c9.5,0,15,5.47,15,13.15v.08c0,7.67-5.58,13.38-15.16,13.38H224Zm10.37,20.07c4.41,0,7.34-2.43,7.34-6.73v-.07c0-4.26-2.93-6.73-7.34-6.73h-3V24.65Z"/><path class="cls-1" d="M252.17,18v-.08c0-7.64,6.16-13.83,14.37-13.83s14.29,6.12,14.29,13.76v.07c0,7.64-6.15,13.84-14.36,13.84S252.17,25.6,252.17,18Zm21.14,0v-.08a6.91,6.91,0,0,0-6.84-7.18c-4,0-6.73,3.27-6.73,7.11v.07a6.91,6.91,0,0,0,6.8,7.19A6.79,6.79,0,0,0,273.31,18Z"/><path class="cls-1" d="M284.67,4.58h12.59c4.06,0,6.88,1.06,8.66,2.89a8.24,8.24,0,0,1,2.36,6.19v.08a8.41,8.41,0,0,1-5.47,8.17l6.34,9.28h-8.51l-5.36-8.06h-3.23v8.06h-7.38Zm12.24,12.77c2.51,0,4-1.22,4-3.15v-.08c0-2.09-1.52-3.15-4-3.15h-4.83v6.38Z"/><path class="cls-1" d="M54.48,36.74H64.74c9.5,0,15,5.47,15,13.15V50c0,7.68-5.59,13.38-15.16,13.38H54.48ZM64.85,56.81c4.41,0,7.34-2.43,7.34-6.73V50c0-4.26-2.93-6.73-7.34-6.73h-3V56.81Z"/><path class="cls-1" d="M83.55,36.74H105V43H90.85v4h12.77v5.82H90.85v4.22h14.29v6.27H83.55Z"/><path class="cls-1" d="M119.44,36.74h7.37V56.89H139.7v6.46H119.44Z"/><path class="cls-1" d="M152.05,36.55h7.11l11.32,26.8h-7.9l-1.94-4.75H150.38l-1.9,4.75h-7.76Zm6.46,16.31-3-7.57-3,7.57Z"/><path class="cls-1" d="M182.69,50.12V50a13.67,13.67,0,0,1,14-13.83c5.44,0,8.94,2.28,11.29,5.55l-5.55,4.29a7.1,7.1,0,0,0-5.81-3.11c-3.73,0-6.35,3.15-6.35,7V50c0,4,2.62,7.11,6.35,7.11,2.77,0,4.41-1.29,6-3.23l5.55,3.95a14,14,0,0,1-25.5-7.75Z"/><path class="cls-1" d="M209.68,50.12V50c0-7.63,6.15-13.83,14.37-13.83S238.34,42.33,238.34,50V50c0,7.64-6.16,13.84-14.37,13.84S209.68,57.76,209.68,50.12Zm21.13,0V50A6.91,6.91,0,0,0,224,42.86c-4,0-6.73,3.27-6.73,7.11V50a6.92,6.92,0,0,0,6.81,7.19A6.79,6.79,0,0,0,230.81,50.12Z"/><path class="cls-1" d="M242.18,36.74h7.37V56.89h12.89v6.46H242.18Z"/><path class="cls-1" d="M265.59,36.74H287V43h-14.1v4h12.77v5.82H272.89v4.22h14.29v6.27H265.59Z"/><path class="cls-1" d="M289.84,50.12V50a13.67,13.67,0,0,1,14-13.83,13,13,0,0,1,11.29,5.55l-5.55,4.29a7.12,7.12,0,0,0-5.82-3.11c-3.72,0-6.34,3.15-6.34,7V50c0,4,2.62,7.11,6.34,7.11,2.78,0,4.41-1.29,6-3.23l5.55,3.95a14,14,0,0,1-25.51-7.75Z"/><path class="cls-1" d="M325,43.2h-8V36.74h23.34V43.2h-8V63.35H325Z"/><path class="cls-1" d="M341.54,50.12V50c0-7.63,6.16-13.83,14.37-13.83S370.2,42.33,370.2,50V50c0,7.64-6.16,13.84-14.37,13.84S341.54,57.76,341.54,50.12Zm21.13,0V50a6.91,6.91,0,0,0-6.84-7.18c-4,0-6.73,3.27-6.73,7.11V50a6.92,6.92,0,0,0,6.81,7.19A6.79,6.79,0,0,0,362.67,50.12Z"/><path class="cls-1" d="M374,36.74h12.58c4.07,0,6.88,1.07,8.67,2.89a8.24,8.24,0,0,1,2.35,6.2v.07a8.4,8.4,0,0,1-5.47,8.17l6.35,9.28H390l-5.36-8.06h-3.23v8.06H374Zm12.24,12.77c2.51,0,4-1.21,4-3.15v-.08c0-2.09-1.52-3.15-4-3.15h-4.83v6.38Z"/><path class="cls-1" d="M410.11,36.55h7.11l11.33,26.8h-7.91L418.7,58.6H408.44l-1.9,4.75h-7.75Zm6.47,16.31-3-7.57-3,7.57Z"/></svg>